<svg width="73" height="73" viewBox="0 0 73 73" fill="none" xmlns="http://www.w3.org/2000/svg">
<circle cx="36.5" cy="36.5" r="35.875" fill="#93989B" stroke="black" stroke-width="0.75"/>
<g clip-path="url(#clip0_0_1)">
<path d="M46.6994 52.1737H26.2903C25.1533 51.9229 23.9836 51.8766 22.8317 52.0367C22.5695 51.8259 22.3073 51.594 22.0351 51.4043C21.2414 50.9253 20.5817 50.2372 20.1217 49.4087C19.6617 48.5801 19.4174 47.64 19.4133 46.6821C19.4133 44.3737 19.4133 42.0653 19.4133 39.757C19.4839 36.9637 21.1376 35.3721 23.4467 34.3075H49.5531C52.5781 35.5091 53.8285 37.828 53.5865 41.1694C53.4856 42.8032 53.5865 44.4475 53.5865 46.0918C53.681 47.3186 53.3852 48.5437 52.7452 49.5768C52.1052 50.6099 51.1567 51.3931 50.0472 51.8048C48.938 52.121 47.7884 51.7837 46.6994 52.1737ZM36.6159 41.4751C35.9806 41.4751 35.3453 41.4751 34.7202 41.4751C34.5091 41.455 34.2964 41.4827 34.0966 41.5564C33.8967 41.6301 33.7145 41.7481 33.5623 41.9022C33.4101 42.0563 33.2915 42.243 33.2146 42.4494C33.1377 42.6558 33.1044 42.8772 33.1169 43.0983C33.0857 43.3098 33.0966 43.5258 33.1487 43.7327C33.2008 43.9397 33.2931 44.1332 33.4198 44.3013C33.5466 44.4694 33.705 44.6084 33.8854 44.7097C34.0657 44.811 34.264 44.8724 34.4681 44.8902C35.7725 45.022 37.0861 45.022 38.3906 44.8902C38.605 44.8763 38.8142 44.8147 39.0041 44.7096C39.1941 44.6046 39.3604 44.4584 39.4921 44.2809C39.6237 44.1034 39.7177 43.8986 39.7677 43.6801C39.8177 43.4617 39.8226 43.2346 39.7821 43.014C39.7756 42.8022 39.7292 42.5938 39.6456 42.4007C39.562 42.2076 39.4428 42.0337 39.2948 41.8888C39.1468 41.7439 38.973 41.6309 38.7833 41.5563C38.5935 41.4817 38.3915 41.4469 38.1889 41.454C37.6746 41.4434 37.1503 41.4751 36.5755 41.4751H36.6159ZM29.6683 43.1932C29.6878 42.9592 29.6572 42.7236 29.5788 42.5036C29.5003 42.2835 29.3759 42.0845 29.2146 41.921C29.0534 41.7574 28.8593 41.6335 28.6465 41.5582C28.4337 41.4829 28.2075 41.4581 27.9843 41.4856C27.5668 41.5197 27.1768 41.7171 26.8924 42.0385C26.608 42.3599 26.45 42.7817 26.45 43.2195C26.45 43.6574 26.608 44.0791 26.8924 44.4005C27.1768 44.7219 27.5668 44.9194 27.9843 44.9534C28.2044 44.9565 28.4228 44.9127 28.6262 44.8247C28.8295 44.7368 29.0137 44.6065 29.1674 44.4419C29.3212 44.2773 29.4413 44.0817 29.5204 43.867C29.5996 43.6523 29.6362 43.4231 29.628 43.1932H29.6683ZM45.4995 41.4856C44.0878 41.4856 43.4021 42.1391 43.4021 43.1932C43.3762 43.4157 43.3961 43.6414 43.4606 43.8551C43.525 44.0689 43.6325 44.2658 43.7758 44.4325C43.919 44.5993 44.0948 44.732 44.2912 44.8219C44.4877 44.9117 44.7002 44.9566 44.9146 44.9534C45.148 44.9762 45.3834 44.9465 45.6049 44.8664C45.8264 44.7862 46.029 44.6574 46.199 44.4887C46.369 44.32 46.5025 44.1152 46.5905 43.8882C46.6786 43.6611 46.7191 43.4169 46.7095 43.1721C46.5986 42.1707 46.1045 41.5172 45.4591 41.4856H45.4995Z" fill="#AFE0EC" stroke="black" stroke-width="0.75" stroke-miterlimit="10"/>
<path d="M49.5228 34.3392H23.4165C24.1627 31.9359 24.8383 29.5116 25.6752 27.1505C26.0173 26.0856 26.6835 25.1669 27.5721 24.535C28.4607 23.9031 29.5227 23.5926 30.596 23.6511C34.5387 23.6511 38.4813 23.6511 42.424 23.6511C43.4067 23.5756 44.3872 23.8265 45.2255 24.3678C46.0639 24.9091 46.7173 25.7133 47.0927 26.6657C48.0847 29.1566 48.897 31.7216 49.5228 34.3392Z" fill="white" stroke="black" stroke-width="0.75" stroke-miterlimit="10"/>
<path d="M22.8315 52.0367C23.9835 51.8766 25.1531 51.923 26.2902 52.1738C26.3256 52.7916 26.3256 53.4111 26.2902 54.0289C26.2825 54.2454 26.2336 54.458 26.1465 54.6546C26.0594 54.8511 25.9358 55.0276 25.7829 55.1738C25.6299 55.3199 25.4507 55.4328 25.2556 55.5059C25.0605 55.579 24.8535 55.6108 24.6466 55.5994C24.4449 55.6227 24.2408 55.6036 24.0462 55.5432C23.8517 55.4829 23.6707 55.3825 23.5138 55.248C23.3569 55.1134 23.2273 54.9475 23.1327 54.7598C23.038 54.5722 22.9802 54.3667 22.9626 54.1554C22.8618 53.4597 22.8719 52.7429 22.8315 52.0367Z" fill="white" stroke="black" stroke-width="0.75" stroke-miterlimit="10"/>
<path d="M46.6995 52.1737C47.7885 51.8048 48.938 52.1737 50.0371 51.8364C50.0371 52.5426 50.0371 53.2489 50.0371 53.9445C50.0428 54.1667 50.0048 54.3876 49.9255 54.5938C49.8461 54.7999 49.7272 54.9868 49.5759 55.143C49.4247 55.2991 49.2444 55.4211 49.0462 55.5014C48.848 55.5817 48.6362 55.6187 48.4238 55.6099C48.2109 55.6271 47.9969 55.5992 47.7947 55.5277C47.5925 55.4562 47.4062 55.3427 47.247 55.194C47.0878 55.0453 46.959 54.8645 46.8684 54.6625C46.7778 54.4605 46.7272 54.2413 46.7196 54.0183C46.6726 53.4047 46.6659 52.7883 46.6995 52.1737Z" fill="white" stroke="black" stroke-width="0.75" stroke-miterlimit="10"/>
<path d="M36.5755 41.4751C37.13 41.4751 37.6746 41.4751 38.2292 41.4751C38.4318 41.4681 38.6337 41.5029 38.8235 41.5775C39.0133 41.6521 39.1871 41.7651 39.3351 41.91C39.483 42.0548 39.6022 42.2288 39.6858 42.4218C39.7695 42.6149 39.8158 42.8233 39.8224 43.0351C39.8629 43.2557 39.858 43.4828 39.808 43.7013C39.758 43.9197 39.664 44.1245 39.5323 44.3021C39.4007 44.4796 39.2343 44.6257 39.0444 44.7308C38.8545 44.8359 38.6453 44.8974 38.4308 44.9113C37.1264 45.0431 35.8128 45.0431 34.5083 44.9113C34.2988 44.8995 34.094 44.8416 33.9074 44.7414C33.7207 44.6412 33.5563 44.501 33.425 44.3299C33.2937 44.1588 33.1984 43.9607 33.1453 43.7485C33.0922 43.5363 33.0825 43.3148 33.1168 43.0984C33.1083 42.8865 33.1418 42.6751 33.2152 42.4774C33.2886 42.2797 33.4003 42.1 33.5433 41.9496C33.6862 41.7992 33.8574 41.6812 34.046 41.6032C34.2347 41.5252 34.4367 41.4888 34.6394 41.4962C35.2646 41.4962 35.8999 41.4962 36.5351 41.4962L36.5755 41.4751Z" fill="white" stroke="black" stroke-width="0.75" stroke-miterlimit="10"/>
<path d="M29.628 43.1932C29.6365 43.4267 29.5987 43.6596 29.5171 43.8772C29.4355 44.0948 29.3117 44.2924 29.1537 44.4576C28.9956 44.6229 28.8065 44.7522 28.5984 44.8376C28.3902 44.9229 28.1674 44.9623 27.944 44.9535C27.5264 44.9194 27.1365 44.7219 26.8521 44.4005C26.5677 44.0791 26.4097 43.6574 26.4097 43.2195C26.4097 42.7817 26.5677 42.36 26.8521 42.0385C27.1365 41.7171 27.5264 41.5197 27.944 41.4856C28.1672 41.4581 28.3933 41.4829 28.6061 41.5582C28.819 41.6335 29.013 41.7574 29.1743 41.921C29.3356 42.0845 29.46 42.2835 29.5384 42.5036C29.6169 42.7236 29.6475 42.9592 29.628 43.1932Z" fill="white" stroke="black" stroke-width="0.75" stroke-miterlimit="10"/>
<path d="M45.4592 41.4856C46.1046 41.4856 46.5987 42.1707 46.6693 43.1721C46.6789 43.4169 46.6383 43.6611 46.5503 43.8881C46.4622 44.1152 46.3287 44.32 46.1587 44.4887C45.9887 44.6574 45.7862 44.7862 45.5647 44.8663C45.3431 44.9465 45.1078 44.9762 44.8744 44.9534C44.66 44.9566 44.4474 44.9117 44.251 44.8219C44.0546 44.732 43.8788 44.5993 43.7355 44.4325C43.5922 44.2658 43.4848 44.0689 43.4203 43.8551C43.3559 43.6414 43.3359 43.4156 43.3619 43.1932C43.3619 42.1391 44.0475 41.4645 45.4592 41.4856Z" fill="white" stroke="black" stroke-width="0.75" stroke-miterlimit="10"/>
<path d="M53.6066 21.2162C53.6074 21.4817 53.5123 21.7378 53.3403 21.9332C53.1683 22.1286 52.9321 22.249 52.6789 22.2702C52.3434 22.2996 52.0061 22.2996 51.6706 22.2702C51.0151 22.1754 50.6622 22.3756 50.8135 23.1135C50.8556 23.4634 50.8556 23.8176 50.8135 24.1675C50.8231 24.2963 50.8083 24.4259 50.7698 24.5487C50.7314 24.6715 50.6701 24.7851 50.5895 24.883C50.5089 24.981 50.4106 25.0613 50.3002 25.1194C50.1898 25.1775 50.0695 25.2123 49.9463 25.2216H49.8858C49.6406 25.2161 49.4072 25.1104 49.2357 24.9271C49.0641 24.7439 48.9681 24.4977 48.9682 24.2413C48.9682 23.6194 49.2303 22.7867 48.8068 22.4389C48.3833 22.091 47.6472 22.2702 47.0725 22.2702C46.9577 22.2788 46.8425 22.2634 46.7335 22.225C46.6245 22.1866 46.5239 22.1259 46.4376 22.0464C46.3512 21.967 46.2809 21.8703 46.2306 21.7622C46.1804 21.654 46.1512 21.5365 46.1448 21.4165V21.2689C46.1448 20.6365 46.5078 20.3729 47.0725 20.3202C47.6371 20.2675 48.4237 20.5837 48.8068 20.141C49.19 19.6983 48.8875 18.971 48.9278 18.3702C48.9196 18.2503 48.9343 18.1299 48.9711 18.0159C49.0079 17.902 49.0659 17.7968 49.1419 17.7066C49.218 17.6163 49.3104 17.5428 49.4139 17.4902C49.5173 17.4377 49.6298 17.4072 49.7446 17.4005C49.7775 17.3899 49.8126 17.3899 49.8454 17.4005C49.9685 17.3878 50.0928 17.4035 50.2095 17.4463C50.3262 17.4892 50.4325 17.5583 50.5209 17.6487C50.6093 17.7391 50.6777 17.8487 50.7213 17.9697C50.7649 18.0907 50.7826 18.2202 50.7731 18.3492C50.8034 18.837 50.8034 19.3264 50.7731 19.8143C50.7731 20.2043 50.9143 20.3308 51.2672 20.3202C51.7608 20.2886 52.2559 20.2886 52.7495 20.3202C53.2839 20.3308 53.4755 20.7629 53.6066 21.2162Z" fill="#AFE0EC" stroke="black" stroke-width="0.75" stroke-miterlimit="10"/>
</g>
<defs>
<clipPath id="clip0_0_1">
<rect width="35" height="39" fill="white" transform="translate(19 17)"/>
</clipPath>
</defs>
</svg>
