<svg width="59" height="59" viewBox="0 0 59 59" fill="none" xmlns="http://www.w3.org/2000/svg">
<path d="M29.3368 1.37964C36.7649 1.42541 43.8815 4.36932 49.1712 9.5844C54.4609 14.7995 57.5056 21.8736 57.6568 29.3003C57.5262 36.7704 54.5006 43.8981 49.2176 49.181C43.9346 54.464 36.807 57.4897 29.3368 57.6203C22.0537 57.3585 15.1563 54.2813 10.0964 49.0363C5.03653 43.7913 2.20898 36.7878 2.20898 29.4999C2.20898 22.2121 5.03653 15.2086 10.0964 9.96362C15.1563 4.71864 22.0537 1.64138 29.3368 1.37964ZM46.4015 35.1095V24.2172H49.6692C50.7584 24.2172 51.1215 23.8541 50.7584 22.7649C49.8307 20.441 48.6106 18.2448 47.1276 16.2295C44.8632 13.0525 41.7689 10.5593 38.1829 9.02244C34.597 7.48561 30.6575 6.96435 26.7953 7.51564C22.8949 7.94497 19.1828 9.41984 16.0513 11.7844C12.9198 14.149 10.4852 17.3156 9.00454 20.9495C7.55223 24.2172 6.82608 24.2172 11.183 24.2172H12.2722V35.1095H10.0938C7.55223 35.1095 7.55223 35.1095 8.27838 37.651C9.4343 40.5142 11.1553 43.1151 13.3386 45.2985C15.522 47.4818 18.1229 49.2028 20.9861 50.3587C23.5276 51.4479 23.5276 51.4479 23.5276 48.9064V46.7279H34.4199V49.2695C34.4199 51.0849 34.783 51.4479 36.5984 50.7218C39.6692 49.6803 42.4688 47.9663 44.7929 45.7051C47.117 43.4438 48.907 40.6922 50.0322 37.651C51.1215 35.4726 50.7584 35.1095 48.2168 35.1095H46.4015Z" fill="#AFE0EC" stroke="black" stroke-width="0.75" stroke-miterlimit="10"/>
<path d="M18.154 35.872C17.7909 37.6874 16.7017 38.0141 15.2494 38.0141C14.8845 38.0119 14.5244 37.9323 14.1926 37.7806C13.8608 37.6288 13.5651 37.4084 13.3248 37.1339C13.0846 36.8593 12.9054 36.5369 12.799 36.1879C12.6926 35.839 12.6616 35.4714 12.7078 35.1095V24.2172C12.6738 23.8288 12.7259 23.4378 12.8604 23.0718C12.9949 22.7059 13.2085 22.3742 13.4858 22.1002C13.7632 21.8263 14.0976 21.617 14.4652 21.4871C14.8328 21.3572 15.2245 21.31 15.6124 21.3489C17.4278 21.3489 18.154 22.4018 18.154 24.2535V35.872Z" fill="#CCCCCC" stroke="black" stroke-width="0.75" stroke-miterlimit="10"/>
<path d="M46.4013 35.1095C46.4476 35.4714 46.4165 35.8389 46.3102 36.1879C46.2038 36.5369 46.0246 36.8593 45.7843 37.1338C45.5441 37.4084 45.2483 37.6288 44.9166 37.7806C44.5848 37.9323 44.2246 38.0119 43.8598 38.0141C42.7706 38.0141 41.3183 37.6873 41.3183 36.1987C40.9937 35.3933 40.8691 34.5213 40.9552 33.6572V24.2172C40.9552 22.4018 41.6813 21.3489 43.4967 21.3489C43.888 21.3092 44.2831 21.357 44.6536 21.4889C45.0241 21.6209 45.3605 21.8336 45.6386 22.1116C45.9167 22.3897 46.1294 22.7262 46.2613 23.0966C46.3932 23.4671 46.4411 23.8623 46.4013 24.2535V35.1095Z" fill="#CCCCCC" stroke="black" stroke-width="0.75" stroke-miterlimit="10"/>
<path d="M36.3081 41.3181C36.8694 41.4325 37.3674 41.7533 37.7036 42.2172C38.0397 42.6811 38.1896 43.2543 38.1235 43.8233C38.1213 44.1881 38.0417 44.5483 37.8899 44.8801C37.7382 45.2118 37.5177 45.5076 37.2432 45.7478C36.9686 45.9881 36.6462 46.1673 36.2973 46.2737C35.9483 46.38 35.5807 46.4111 35.2189 46.3649H24.3265C23.6256 46.3345 22.9559 46.0662 22.4279 45.6042C21.8999 45.1422 21.5451 44.514 21.4219 43.8233C21.0589 42.371 22.1481 41.2818 23.6004 40.9187C24.4058 41.2433 25.2779 41.3679 26.1419 41.2818L36.3081 41.3181Z" fill="#CCCCCC" stroke="black" stroke-width="0.75" stroke-miterlimit="10"/>
<path d="M36.3081 41.3181H25.7063C24.843 41.3765 23.9771 41.2528 23.1648 40.955C22.9589 39.6932 22.3663 38.5264 21.4687 37.6158C20.5712 36.7053 19.4131 36.0959 18.1543 35.8719V24.2172H41.0281V33.6572C40.9697 34.5204 41.0934 35.3863 41.3912 36.1987C40.0885 36.3479 38.8754 36.9361 37.9515 37.8666C37.0277 38.7971 36.4481 40.0143 36.3081 41.3181ZM29.3371 35.1095C29.6989 35.1557 30.0665 35.1246 30.4155 35.0183C30.7644 34.9119 31.0869 34.7327 31.3614 34.4925C31.636 34.2522 31.8564 33.9564 32.0081 33.6247C32.1599 33.2929 32.2395 32.9327 32.2417 32.5679C32.1907 31.8144 31.8683 31.1048 31.3343 30.5707C30.8002 30.0367 30.0906 29.7143 29.3371 29.6633C27.5217 29.6633 26.7955 30.7525 26.4325 32.5679C26.4346 32.9327 26.5142 33.2929 26.666 33.6247C26.8177 33.9564 27.0382 34.2522 27.3127 34.4925C27.5873 34.7327 27.9097 34.9119 28.2587 35.0183C28.6076 35.1246 28.9752 35.1557 29.3371 35.1095Z" fill="#AFE0EC" stroke="black" stroke-width="0.75" stroke-miterlimit="10"/>
<path d="M29.3367 35.1095C28.9749 35.1557 28.6073 35.1247 28.2583 35.0183C27.9094 34.9119 27.587 34.7327 27.3124 34.4925C27.0379 34.2522 26.8174 33.9565 26.6657 33.6247C26.5139 33.2929 26.4343 32.9328 26.4321 32.5679C26.7952 31.1156 27.5214 29.6633 29.3367 29.6633C30.0903 29.7143 30.7999 30.0367 31.3339 30.5708C31.868 31.1048 32.1904 31.8144 32.2414 32.5679C32.2392 32.9328 32.1596 33.2929 32.0078 33.6247C31.8561 33.9565 31.6356 34.2522 31.3611 34.4925C31.0865 34.7327 30.7641 34.9119 30.4152 35.0183C30.0662 35.1247 29.6986 35.1557 29.3367 35.1095Z" fill="#93989B" stroke="black" stroke-width="0.75" stroke-miterlimit="10"/>
</svg>
