<svg width="47" height="59" viewBox="0 0 47 59" fill="none" xmlns="http://www.w3.org/2000/svg">
<g clip-path="url(#clip0_242_467)">
<path d="M28.9961 52.2438H4.50098C2.05146 52.2438 1.16352 51.3098 1.16352 48.819V4.88814C1.09043 4.38164 1.13534 3.86477 1.29464 3.37915C1.45393 2.89352 1.72316 2.45273 2.08063 2.09226C2.43811 1.7318 2.87384 1.46173 3.35274 1.30382C3.83163 1.14591 4.3403 1.10457 4.83778 1.18313H28.7205V3.9541C28.9961 19.8639 28.9961 36.0538 28.9961 52.2438Z" fill="#CCCCCC" stroke="black" stroke-width="0.75" stroke-miterlimit="10"/>
<path d="M34.8443 1.18309C36.5334 0.961125 38.2502 1.15652 39.8492 1.7527C41.4482 2.34888 42.8823 3.32828 44.03 4.60789C45.0978 5.96653 45.757 7.60987 45.9283 9.34034V44.5224C45.8455 46.5598 45.0125 48.491 43.5945 49.9329C42.1765 51.3748 40.2772 52.2218 38.2736 52.306H34.9055V1.18309H34.8443Z" fill="#CCCCCC" stroke="black" stroke-width="0.75" stroke-miterlimit="10"/>
<path d="M34.8443 1.18311V52.2438H29.0267V1.18311H34.8443Z" fill="white" stroke="black" stroke-width="0.75" stroke-miterlimit="10"/>
<path d="M6.9811 52.2438H12.4925V55.0459C12.5206 55.4197 12.4683 55.7953 12.3393 56.1466C12.2103 56.4979 12.0076 56.8164 11.7455 57.08C11.4833 57.3436 11.1678 57.5461 10.8209 57.6734C10.4741 57.8006 10.1041 57.8496 9.7368 57.8169C9.36947 57.8496 8.99953 57.8006 8.65267 57.6734C8.30581 57.5461 7.99034 57.3436 7.72815 57.08C7.46596 56.8164 7.26333 56.4979 7.13433 56.1466C7.00532 55.7953 6.95304 55.4197 6.9811 55.0459C6.82808 54.1183 6.82808 53.1713 6.9811 52.2438Z" fill="#93989B" stroke="black" stroke-width="0.75" stroke-miterlimit="10"/>
</g>
<defs>
<clipPath id="clip0_242_467">
<rect width="47" height="59" fill="white"/>
</clipPath>
</defs>
</svg>
