<svg width="46" height="59" viewBox="0 0 46 59" fill="none" xmlns="http://www.w3.org/2000/svg">
<g clip-path="url(#clip0_242_637)">
<path d="M32.393 7.017H38.3202C39.2079 6.98777 40.0919 7.14453 40.9178 7.47758C41.7437 7.81062 42.4938 8.31288 43.1218 8.9533C43.7498 9.59372 44.2423 10.3587 44.5689 11.2009C44.8954 12.0432 45.0491 12.9447 45.0205 13.85V51.1684C45.0643 52.1003 44.9121 53.0309 44.5744 53.8978C44.2366 54.7648 43.7209 55.5481 43.062 56.1952C42.4031 56.8423 41.6161 57.3382 40.7538 57.6497C39.8916 57.9612 38.9739 58.0812 38.0625 58.0014H7.93702C7.03113 58.0561 6.12396 57.9188 5.27267 57.5982C4.42138 57.2776 3.64442 56.7807 2.99075 56.1388C2.33708 55.4969 1.82087 54.7239 1.47463 53.8684C1.1284 53.013 0.95966 52.0937 0.979037 51.1684V13.85C0.972061 12.9462 1.14232 12.0502 1.47981 11.2145C1.8173 10.3788 2.3152 9.62039 2.94425 8.98378C3.5733 8.34717 4.3208 7.84523 5.14281 7.50748C5.96482 7.16972 6.84474 7.00296 7.73086 7.017H13.658V8.59384C13.658 12.5359 14.6888 13.5872 18.5544 13.5872H25.4608C32.9085 13.85 32.6507 12.2731 32.393 7.017ZM23.3734 35.6629H14.8692C12.5499 35.6629 10.746 36.9769 10.746 38.8166C10.746 40.6562 12.2922 42.233 14.8692 42.233H31.6199C33.9393 42.233 35.7432 40.919 35.7432 39.1056C35.7432 37.2923 34.197 35.6629 31.6199 35.6629H23.3734ZM26.2082 23.3373H20.0233C19.6046 23.271 19.1765 23.3059 18.7734 23.4391C18.3703 23.5724 18.0036 23.8004 17.7027 24.1047C17.4019 24.4089 17.1753 24.781 17.0412 25.1909C16.9071 25.6008 16.8693 26.0371 16.9309 26.4647C16.8866 26.8675 16.9274 27.2753 17.0506 27.6607C17.1738 28.046 17.3765 28.4 17.6451 28.6988C17.9137 28.9976 18.2419 29.2343 18.6076 29.3929C18.9734 29.5515 19.3683 29.6284 19.7656 29.6183C23.8888 29.6183 28.2698 29.9074 32.393 29.6183C32.828 29.6855 33.2727 29.638 33.6845 29.4803C34.0964 29.3226 34.4619 29.06 34.746 28.7175C35.0302 28.375 35.2237 27.964 35.308 27.5236C35.3923 27.0833 35.3647 26.6282 35.2278 26.2019C35.2278 24.1257 34.197 23.3373 32.393 23.3373H26.2082Z" fill="#AFE0EC" stroke="black" stroke-width="0.75" stroke-miterlimit="10"/>
<path d="M32.3934 7.01695C32.3934 12.2731 32.6511 13.8499 25.4354 13.5871H18.4774C14.6119 13.5871 13.5811 12.5359 13.5811 8.59379V7.01695C13.6163 6.13625 13.8315 5.27277 14.2127 4.48172C14.594 3.69068 15.133 2.9895 15.7952 2.42303C16.4573 1.85657 17.2282 1.43729 18.0584 1.19203C18.8885 0.946767 19.7598 0.880914 20.6163 0.998686H25.255C29.5586 0.998686 31.6203 2.62808 32.3934 7.01695Z" fill="white" stroke="black" stroke-width="0.75" stroke-miterlimit="10"/>
<path d="M23.3735 35.6628H31.62C32.115 35.5971 32.6179 35.6353 33.0979 35.7752C33.5778 35.915 34.0247 36.1535 34.4109 36.476C34.7971 36.7984 35.1145 37.1981 35.3437 37.6503C35.5728 38.1025 35.7088 38.5978 35.7433 39.1056C35.7433 40.919 33.9394 41.9965 31.62 42.233H14.8693C12.2923 42.233 10.7461 40.6562 10.7461 38.8165C10.7461 36.9769 12.55 35.9257 14.8693 35.6628H23.3735Z" fill="white" stroke="black" stroke-width="0.75" stroke-miterlimit="10"/>
<path d="M26.2078 23.3372H32.3927C32.7844 23.3085 33.1777 23.3617 33.5486 23.4934C33.9194 23.6252 34.26 23.8327 34.5495 24.1033C34.839 24.3739 35.0713 24.7019 35.2322 25.0673C35.3931 25.4326 35.4791 25.8276 35.4851 26.228C35.7428 28.3305 34.4543 29.3817 32.6504 29.6445C28.5272 29.9073 24.1462 29.6445 20.023 29.6445C19.6256 29.6546 19.2308 29.5777 18.865 29.4191C18.4992 29.2605 18.171 29.0238 17.9024 28.725C17.6339 28.4262 17.4312 28.0722 17.308 27.6868C17.1848 27.3015 17.1439 26.8937 17.1882 26.4909C17.1483 26.0666 17.2009 25.6386 17.3422 25.2375C17.4835 24.8364 17.71 24.4721 18.0056 24.1707C18.3011 23.8693 18.6583 23.6383 19.0516 23.4942C19.4449 23.3501 19.8646 23.2965 20.2807 23.3372H26.2078Z" fill="white" stroke="black" stroke-width="0.75" stroke-miterlimit="10"/>
</g>
<defs>
<clipPath id="clip0_242_637">
<rect width="46" height="59" fill="white"/>
</clipPath>
</defs>
</svg>
