<?xml version="1.0" encoding="utf-8"?>
<svg viewBox="0 0 500 500" xmlns="http://www.w3.org/2000/svg">
  <defs/>
  <path fill="white" stroke="black" d="M 446.004 220.98 L 308.138 220.98 L 340.052 191.278 C 353.251 178.556 346.71 157.31 328.275 153.038 C 320.007 151.113 311.269 153.293 305.149 158.807 L 231.11 227.706 C 221.487 236.665 221.487 251.205 231.11 260.182 L 305.149 329.088 C 318.825 341.374 341.654 335.267 346.246 318.107 C 348.319 310.437 345.974 302.309 340.052 296.611 L 308.138 266.915 L 446.004 266.915 C 465.004 266.915 476.879 247.758 467.373 232.459 C 462.98 225.342 454.811 220.98 446.004 220.98 Z" style="stroke-width: 17px;"/>
  <path fill="#cccccc" stroke="black" d="M 308.138 266.915 L 340.052 296.611 C 353.722 308.898 347.973 330.329 329.711 335.196 C 320.948 337.537 311.491 335.196 305.149 329.088 L 231.11 260.182 C 221.487 251.205 221.487 236.665 231.11 227.706 L 305.149 158.807 C 318.825 146.514 341.654 152.604 346.246 169.758 C 348.319 177.452 345.974 185.585 340.052 191.278 L 308.138 220.98 L 421.319 220.98 L 421.319 83.171 C 421.294 45.139 388.149 14.29 347.28 14.265 L 149.837 14.265 C 108.968 14.29 75.847 45.139 75.798 83.171 L 75.798 404.718 C 75.847 442.756 108.968 473.575 149.837 473.623 L 347.28 473.623 C 388.149 473.575 421.294 442.756 421.319 404.718 L 421.319 266.915 L 308.138 266.915 Z" style="stroke-width: 16px;"/>
</svg>
