<?xml version="1.0" encoding="UTF-8"?>
<!DOCTYPE svg PUBLIC "-//W3C//DTD SVG 1.1//EN" "http://www.w3.org/Graphics/SVG/1.1/DTD/svg11.dtd">
<svg xmlns="http://www.w3.org/2000/svg" version="1.1" width="233px" height="234px" style="shape-rendering:geometricPrecision; text-rendering:geometricPrecision; image-rendering:optimizeQuality; fill-rule:evenodd; clip-rule:evenodd" xmlns:xlink="http://www.w3.org/1999/xlink">
<g><path style="opacity:0.849" fill="#040404" d="M 19.5,2.5 C 84.1605,3.27338 148.827,3.77338 213.5,4C 217.178,4.00944 219.345,5.84278 220,9.5C 225.618,13.1273 228.785,18.294 229.5,25C 228.714,42.8177 228.214,60.651 228,78.5C 227.108,81.2837 225.942,83.9504 224.5,86.5C 221.894,87.7703 219.561,89.4369 217.5,91.5C 216.375,132.827 215.542,174.16 215,215.5C 213.227,219.545 211.06,223.378 208.5,227C 205.352,228.605 202.019,229.605 198.5,230C 145.833,230.333 93.1667,230.667 40.5,231C 39.3999,232.023 38.0666,232.523 36.5,232.5C 26.5146,230.273 19.348,224.607 15,215.5C 14.8333,173.496 14.3333,131.496 13.5,89.5C 6.53717,87.3732 2.70384,82.7065 2,75.5C 1.54126,56.4833 1.20792,37.4833 1,18.5C 5.27227,10.9322 11.4389,5.59886 19.5,2.5 Z"/></g>
<g><path style="opacity:1" fill="#cacaca" d="M 112.5,10.5 C 145.336,11.1667 178.336,11.8333 211.5,12.5C 211.855,13.5223 212.522,14.189 213.5,14.5C 216.5,16.6676 219,19.3343 221,22.5C 221.667,40.5 221.667,58.5 221,76.5C 217.951,81.2158 213.951,84.8824 209,87.5C 208.667,128.5 208.333,169.5 208,210.5C 206.678,218.824 201.844,223.324 193.5,224C 140.833,224.667 88.1667,224.667 35.5,224C 29.3703,222.028 25.0369,218.195 22.5,212.5C 23.1612,169.82 22.4946,127.487 20.5,85.5C 17.9484,83.0568 14.9484,81.3901 11.5,80.5C 11.5979,78.4471 10.9313,76.7804 9.5,75.5C 8.6218,57.8399 8.45513,40.1733 9,22.5C 10.0386,21.7562 10.5386,20.7562 10.5,19.5C 13.5025,14.9894 17.5025,11.8227 22.5,10C 52.6695,9.16945 82.6695,9.33612 112.5,10.5 Z"/></g>
<g><path style="opacity:1" fill="#8e8e8e" d="M 112.5,10.5 C 145.84,10.1668 179.173,10.5001 212.5,11.5C 213.127,12.4168 213.461,13.4168 213.5,14.5C 212.522,14.189 211.855,13.5223 211.5,12.5C 178.336,11.8333 145.336,11.1667 112.5,10.5 Z"/></g>
<g><path style="opacity:1" fill="#858585" d="M 10.5,19.5 C 10.5386,20.7562 10.0386,21.7562 9,22.5C 8.45513,40.1733 8.6218,57.8399 9.5,75.5C 8.68618,73.369 8.18618,71.0356 8,68.5C 7.33333,52.8333 7.33333,37.1667 8,21.5C 8.7083,20.6195 9.54163,19.9528 10.5,19.5 Z"/></g>
<g><path style="opacity:0.975" fill="#0b0b0b" d="M 124.5,23.5 C 151.718,24.987 179.052,25.987 206.5,26.5C 207.66,39.6603 207.827,52.9936 207,66.5C 206.682,68.0609 205.849,69.2276 204.5,70C 145.167,70.6667 85.8333,70.6667 26.5,70C 25.2625,69.7679 24.2625,69.2679 23.5,68.5C 23.1996,53.785 23.5329,39.1183 24.5,24.5C 57.6625,23.5017 90.9958,23.1684 124.5,23.5 Z"/></g>
<g><path style="opacity:1" fill="#3a3a3a" d="M 124.5,23.5 C 146.006,23.415 167.506,23.7484 189,24.5C 195.207,24.5042 201.04,25.1709 206.5,26.5C 179.052,25.987 151.718,24.987 124.5,23.5 Z"/></g>
<g><path style="opacity:1" fill="#fbfbfb" d="M 28.5,30.5 C 85.8333,30.5 143.167,30.5 200.5,30.5C 200.5,41.8333 200.5,53.1667 200.5,64.5C 143.5,64.5 86.5,64.5 29.5,64.5C 29.3663,53.1595 29.0329,41.8261 28.5,30.5 Z"/></g>
<g><path style="opacity:1" fill="#434343" d="M 24.5,24.5 C 23.5329,39.1183 23.1996,53.785 23.5,68.5C 22.3392,54.3393 22.1725,40.0059 23,25.5C 23.3826,24.944 23.8826,24.6107 24.5,24.5 Z"/></g>
<g><path style="opacity:1" fill="#ababab" d="M 20.5,85.5 C 22.4946,127.487 23.1612,169.82 22.5,212.5C 21.8281,170.264 21.1614,127.931 20.5,85.5 Z"/></g>
<g><path style="opacity:0.967" fill="#090909" d="M 85.5,114.5 C 105.169,114.333 124.836,114.5 144.5,115C 145.833,123 145.833,131 144.5,139C 124.503,139.5 104.503,139.667 84.5,139.5C 84.1981,131.082 84.5314,122.748 85.5,114.5 Z"/></g>
<g><path style="opacity:0.982" fill="#d7d7d7" d="M 90.5,128.5 C 90.5,125.833 90.5,123.167 90.5,120.5C 106.833,120.5 123.167,120.5 139.5,120.5C 139.5,124.833 139.5,129.167 139.5,133.5C 122.833,133.5 106.167,133.5 89.5,133.5C 89.2155,131.585 89.5489,129.919 90.5,128.5 Z"/></g>
<g><path style="opacity:1" fill="#fefefe" d="M 90.5,128.5 C 91.4682,126.393 91.8016,124.059 91.5,121.5C 107.167,121.5 122.833,121.5 138.5,121.5C 138.5,125.167 138.5,128.833 138.5,132.5C 122.5,132.5 106.5,132.5 90.5,132.5C 90.5,131.167 90.5,129.833 90.5,128.5 Z"/></g>
</svg>
