<?xml version="1.0" encoding="utf-8"?>
<svg viewBox="0 0 500 500" xmlns="http://www.w3.org/2000/svg">
  <defs/>
  <path stroke="black" d="M 432.175 183.37 L 279.719 33.087 L 149.044 33.087 C 112.974 33.087 83.704 61.94 83.704 97.493 L 83.704 398.059 C 83.704 433.633 112.974 462.465 149.044 462.465 L 366.835 462.465 C 402.928 462.465 432.175 433.633 432.175 398.059 L 432.175 183.37 Z" style="stroke-width: 14px; fill: rgb(204, 204, 204);"/>
  <path fill="#f2f2f2" stroke="black" d="M 425.379 179.292 L 321.918 182.011 C 297.876 182.011 283.797 161.436 283.797 137.716 L 285.156 39.883 L 425.379 179.292 Z M 192.602 204.84 L 214.379 204.84 C 231.151 204.84 241.625 186.957 233.243 172.635 C 229.365 166 222.177 161.899 214.379 161.899 L 192.602 161.899 C 175.852 161.899 165.356 179.804 173.742 194.105 C 177.639 200.761 184.826 204.84 192.602 204.84 Z M 306.094 256.086 L 269.655 302.266 L 250.731 285.497 C 241.429 277.23 226.99 278.414 219.174 288.052 L 175.615 341.723 C 165.096 354.583 172.653 373.842 189.202 376.397 C 196.959 377.598 204.735 374.595 209.611 368.539 L 238.754 332.642 L 257.896 349.624 C 267.285 357.957 281.897 356.69 289.65 346.834 L 340.482 282.428 C 350.765 269.372 342.88 250.244 326.262 247.989 C 318.55 246.94 310.866 250.031 306.094 256.086 Z" style="stroke-width: 14px;"/>
</svg>