<svg width="63" height="63" viewBox="0 0 63 63" fill="none" xmlns="http://www.w3.org/2000/svg">
<path d="M15.2426 28.0657H5.72723C3.02143 28.0657 1.71363 27.156 1.71363 23.9719V5.32205C1.66417 4.83786 1.72234 4.34865 1.88389 3.88998C2.04544 3.43132 2.30632 3.01474 2.64755 2.67056C2.98877 2.32637 3.40177 2.06323 3.8565 1.90028C4.31122 1.73733 4.79624 1.67866 5.27627 1.72855H23.7659C26.5168 1.72855 27.8246 2.6383 27.8246 5.77693V24.4722C27.8246 27.2015 26.9226 28.1112 24.2619 28.1112L15.2426 28.0657Z" fill="white" stroke="black" stroke-width="0.75" stroke-miterlimit="10"/>
<path d="M47.7123 28.0658H38.242C35.9872 28.0658 34.6343 27.156 34.6343 24.4268V5.32208C34.6343 2.59284 35.5362 1.72858 38.242 1.72858H56.7316C57.2134 1.67989 57.7 1.739 58.1565 1.90171C58.6131 2.06441 59.0284 2.32671 59.373 2.66989C59.7175 3.01307 59.9828 3.4287 60.1498 3.88713C60.3169 4.34557 60.3816 4.83552 60.3394 5.32208V24.4268C60.3805 24.9151 60.3154 25.4066 60.1487 25.867C59.9819 26.3273 59.7175 26.7454 59.3739 27.092C59.0303 27.4385 58.6159 27.7052 58.1595 27.8734C57.7031 28.0416 57.2158 28.1073 56.7316 28.0658H47.7123Z" fill="white" stroke="black" stroke-width="0.75" stroke-miterlimit="10"/>
<path d="M28.2756 48.0802V57.1776C28.2756 59.9069 27.3737 61.2715 24.713 61.2715H6.22338C5.67106 61.3564 5.10668 61.3091 4.57584 61.1334C4.04499 60.9577 3.56256 60.6585 3.1675 60.26C2.77244 59.8615 2.47583 59.3749 2.30163 58.8395C2.12743 58.304 2.08052 57.7348 2.16469 57.1776V38.9827C2.16469 36.2535 3.06662 34.9343 6.22338 34.9343H24.713C27.4188 34.9343 28.2756 35.8441 28.2756 38.5733V48.0802Z" fill="white" stroke="black" stroke-width="0.75" stroke-miterlimit="10"/>
<path d="M61.2413 48.0801C60.7903 49.8996 59.8884 51.2643 58.0845 51.2643H54.4768C52.2219 50.8094 51.32 51.7646 51.32 53.9935V57.6325C51.3779 58.0897 51.3382 58.554 51.2034 58.9944C51.0687 59.4348 50.842 59.841 50.5387 60.1857C50.2354 60.5304 49.8625 60.8057 49.445 60.993C49.0275 61.1802 48.5751 61.2752 48.1181 61.2715C47.7041 61.2838 47.2918 61.2114 46.9063 61.0586C46.5207 60.9058 46.1699 60.6759 45.8749 60.3825C45.5798 60.0892 45.3468 59.7387 45.1898 59.352C45.0328 58.9654 44.9551 58.5506 44.9614 58.1328C44.9614 55.8585 45.8633 53.1292 44.5104 52.2195C43.1575 51.3097 40.4517 51.7646 38.6478 51.7646C38.2316 51.7707 37.8184 51.6926 37.4326 51.5347C37.0469 51.3769 36.6965 51.1426 36.4021 50.8457C36.1078 50.5488 35.8755 50.1953 35.719 49.8062C35.5625 49.4171 35.485 49.0003 35.4911 48.5805C35.4403 48.15 35.487 47.7135 35.6277 47.3039C35.7684 46.8943 35.9994 46.5222 36.3033 46.2157C36.6072 45.9091 36.9761 45.6761 37.3822 45.5342C37.7883 45.3923 38.2211 45.3452 38.6478 45.3964C40.9027 45.3964 43.1575 46.3061 44.9614 44.9415C46.7652 43.5769 45.4123 40.8476 45.4123 38.9827C45.36 38.5539 45.406 38.1186 45.5468 37.7106C45.6876 37.3026 45.9195 36.9327 46.2246 36.6294C46.5296 36.3261 46.8997 36.0975 47.3062 35.9613C47.7127 35.8252 48.1448 35.785 48.5691 35.844C48.9935 35.7954 49.4233 35.8423 49.8275 35.9815C50.2317 36.1207 50.6003 36.3486 50.9066 36.6489C51.2129 36.9491 51.4493 37.3142 51.5988 37.7178C51.7483 38.1214 51.8071 38.5534 51.771 38.9827V44.0318C51.771 45.3964 52.2219 45.8058 53.5748 45.8058H58.6257C60.3393 45.4874 60.7903 46.7155 61.2413 48.0801Z" fill="#93989B" stroke="black" stroke-width="0.75" stroke-miterlimit="10"/>
</svg>
