<svg width="63" height="63" viewBox="0 0 63 63" fill="none" xmlns="http://www.w3.org/2000/svg">
<path d="M15.2427 28.0657H5.72726C3.02146 28.0657 1.71366 27.156 1.71366 23.9719V5.32205C1.6642 4.83786 1.72237 4.34865 1.88392 3.88998C2.04547 3.43132 2.30635 3.01474 2.64758 2.67056C2.9888 2.32637 3.4018 2.06323 3.85653 1.90028C4.31125 1.73733 4.79627 1.67866 5.2763 1.72855H23.7659C26.5168 1.72855 27.8246 2.6383 27.8246 5.77693V24.4722C27.8246 27.2015 26.9227 28.1112 24.262 28.1112L15.2427 28.0657Z" fill="white" stroke="black" stroke-width="0.75" stroke-miterlimit="10"/>
<path d="M47.7122 28.0658H38.2419C35.9871 28.0658 34.6342 27.156 34.6342 24.4268V5.32208C34.6342 2.59284 35.5361 1.72858 38.2419 1.72858H56.7316C57.2134 1.67989 57.6999 1.739 58.1565 1.90171C58.613 2.06441 59.0284 2.32671 59.3729 2.66989C59.7175 3.01307 59.9827 3.4287 60.1498 3.88713C60.3168 4.34557 60.3815 4.83553 60.3393 5.32208V24.4268C60.3804 24.9151 60.3154 25.4066 60.1486 25.867C59.9818 26.3273 59.7174 26.7454 59.3739 27.092C59.0303 27.4385 58.6158 27.7052 58.1594 27.8734C57.703 28.0416 57.2157 28.1073 56.7316 28.0658H47.7122Z" fill="white" stroke="black" stroke-width="0.75" stroke-miterlimit="10"/>
<path d="M28.2756 48.0802V57.1776C28.2756 59.9069 27.3736 61.2715 24.7129 61.2715H6.22332C5.671 61.3564 5.10662 61.3091 4.57578 61.1334C4.04493 60.9577 3.56249 60.6585 3.16743 60.26C2.77237 59.8615 2.47577 59.3749 2.30157 58.8395C2.12736 58.304 2.08045 57.7348 2.16462 57.1776V38.9827C2.16462 36.2535 3.06656 34.9343 6.22332 34.9343H24.7129C27.4187 34.9343 28.2756 35.8441 28.2756 38.5733V48.0802Z" fill="white" stroke="black" stroke-width="0.75" stroke-miterlimit="10"/>
<path d="M61.2412 48.0801C60.7903 49.8996 59.8883 51.2643 58.0845 51.2643H54.4767C52.2219 50.8094 51.32 51.7646 51.32 53.9935V57.6325C51.3779 58.0897 51.3382 58.554 51.2034 58.9944C51.0686 59.4348 50.842 59.841 50.5387 60.1857C50.2354 60.5304 49.8625 60.8057 49.4449 60.993C49.0274 61.1802 48.575 61.2752 48.1181 61.2715C47.704 61.2838 47.2918 61.2114 46.9063 61.0586C46.5207 60.9058 46.1698 60.6759 45.8748 60.3825C45.5798 60.0892 45.3468 59.7387 45.1898 59.352C45.0328 58.9654 44.9551 58.5506 44.9613 58.1328C44.9613 55.8585 45.8633 53.1292 44.5104 52.2195C43.1575 51.3097 40.4517 51.7646 38.6478 51.7646C38.2316 51.7707 37.8184 51.6926 37.4326 51.5347C37.0469 51.3769 36.6965 51.1426 36.4021 50.8457C36.1077 50.5488 35.8755 50.1953 35.719 49.8062C35.5625 49.4171 35.485 49.0003 35.491 48.5805C35.4403 48.15 35.487 47.7135 35.6277 47.3039C35.7684 46.8943 35.9994 46.5222 36.3033 46.2157C36.6072 45.9091 36.9761 45.6761 37.3822 45.5342C37.7883 45.3923 38.221 45.3452 38.6478 45.3964C40.9026 45.3964 43.1575 46.3061 44.9613 44.9415C46.7652 43.5769 45.4123 40.8476 45.4123 38.9827C45.3599 38.5539 45.4059 38.1186 45.5468 37.7106C45.6876 37.3026 45.9195 36.9327 46.2245 36.6294C46.5296 36.3261 46.8996 36.0975 47.3062 35.9613C47.7127 35.8252 48.1447 35.785 48.5691 35.844C48.9935 35.7954 49.4233 35.8423 49.8275 35.9815C50.2317 36.1207 50.6003 36.3486 50.9066 36.6489C51.2129 36.9491 51.4493 37.3142 51.5988 37.7178C51.7482 38.1214 51.807 38.5534 51.7709 38.9827V44.0318C51.7709 45.3964 52.2219 45.8058 53.5748 45.8058H58.6256C60.3393 45.4874 60.7903 46.7155 61.2412 48.0801Z" fill="#4DE0E3" stroke="black" stroke-width="0.75" stroke-miterlimit="10"/>
</svg>
