<svg width="59" height="59" viewBox="0 0 59 59" fill="none" xmlns="http://www.w3.org/2000/svg">
<path d="M29.3366 1.37964C36.7646 1.42541 43.8813 4.36932 49.171 9.5844C54.4607 14.7995 57.5054 21.8736 57.6566 29.3003C57.526 36.7704 54.5004 43.8981 49.2174 49.181C43.9344 54.464 36.8067 57.4897 29.3366 57.6203C22.0535 57.3585 15.156 54.2813 10.0962 49.0363C5.0363 43.7913 2.20875 36.7878 2.20875 29.4999C2.20875 22.2121 5.0363 15.2086 10.0962 9.96362C15.156 4.71864 22.0535 1.64138 29.3366 1.37964ZM46.4012 35.1095V24.2172H49.6689C50.7582 24.2172 51.1212 23.8541 50.7582 22.7649C49.8305 20.441 48.6104 18.2448 47.1274 16.2295C44.863 13.0525 41.7686 10.5593 38.1827 9.02244C34.5968 7.48561 30.6573 6.96435 26.7951 7.51564C22.8947 7.94497 19.1826 9.41984 16.0511 11.7844C12.9196 14.149 10.4849 17.3156 9.00431 20.9495C7.552 24.2172 6.82584 24.2172 11.1828 24.2172H12.272V35.1095H10.0935C7.552 35.1095 7.552 35.1095 8.27815 37.651C9.43407 40.5142 11.1551 43.1151 13.3384 45.2985C15.5218 47.4818 18.1227 49.2028 20.9858 50.3587C23.5274 51.4479 23.5274 51.4479 23.5274 48.9064V46.7279H34.4197V49.2695C34.4197 51.0849 34.7828 51.4479 36.5982 50.7218C39.669 49.6803 42.4686 47.9663 44.7927 45.7051C47.1168 43.4438 48.9068 40.6922 50.032 37.651C51.1212 35.4726 50.7582 35.1095 48.2166 35.1095H46.4012Z" fill="white" stroke="black" stroke-width="0.75" stroke-miterlimit="10"/>
<path d="M18.1538 35.872C17.7908 37.6874 16.7015 38.0141 15.2492 38.0141C14.8844 38.0119 14.5242 37.9323 14.1925 37.7806C13.8607 37.6288 13.5649 37.4084 13.3247 37.1339C13.0845 36.8593 12.9053 36.5369 12.7989 36.1879C12.6925 35.839 12.6614 35.4714 12.7077 35.1095V24.2172C12.6737 23.8288 12.7258 23.4378 12.8603 23.0718C12.9948 22.7059 13.2083 22.3742 13.4857 22.1002C13.7631 21.8263 14.0975 21.617 14.4651 21.4871C14.8327 21.3572 15.2244 21.31 15.6123 21.3489C17.4277 21.3489 18.1538 22.4018 18.1538 24.2535V35.872Z" fill="#CCCCCC" stroke="black" stroke-width="0.75" stroke-miterlimit="10"/>
<path d="M46.4012 35.1095C46.4475 35.4714 46.4164 35.8389 46.31 36.1879C46.2037 36.5369 46.0244 36.8593 45.7842 37.1338C45.544 37.4084 45.2482 37.6288 44.9164 37.7806C44.5847 37.9323 44.2245 38.0119 43.8597 38.0141C42.7705 38.0141 41.3182 37.6873 41.3182 36.1987C40.9936 35.3933 40.869 34.5213 40.9551 33.6572V24.2172C40.9551 22.4018 41.6812 21.3489 43.4966 21.3489C43.8879 21.3092 44.283 21.357 44.6535 21.4889C45.024 21.6209 45.3604 21.8336 45.6385 22.1116C45.9166 22.3897 46.1293 22.7262 46.2612 23.0966C46.3931 23.4671 46.4409 23.8623 46.4012 24.2535V35.1095Z" fill="#CCCCCC" stroke="black" stroke-width="0.75" stroke-miterlimit="10"/>
<path d="M36.3077 41.3181C36.869 41.4325 37.367 41.7533 37.7032 42.2172C38.0393 42.6811 38.1892 43.2543 38.1231 43.8233C38.1209 44.1881 38.0413 44.5483 37.8895 44.8801C37.7378 45.2118 37.5174 45.5076 37.2428 45.7478C36.9682 45.9881 36.6458 46.1673 36.2969 46.2737C35.9479 46.38 35.5803 46.4111 35.2185 46.3649H24.3262C23.6252 46.3345 22.9555 46.0662 22.4275 45.6042C21.8995 45.1422 21.5447 44.514 21.4215 43.8233C21.0585 42.371 22.1477 41.2818 23.6 40.9187C24.4054 41.2433 25.2775 41.3679 26.1415 41.2818L36.3077 41.3181Z" fill="#CCCCCC" stroke="black" stroke-width="0.75" stroke-miterlimit="10"/>
<path d="M36.3077 41.3181H25.7058C24.8426 41.3765 23.9767 41.2528 23.1643 40.955C22.9585 39.6932 22.3658 38.5264 21.4683 37.6158C20.5708 36.7053 19.4126 36.0959 18.1538 35.8719V24.2172H41.0277V33.6572C40.9692 34.5204 41.0929 35.3863 41.3908 36.1987C40.0881 36.3479 38.875 36.9361 37.9511 37.8666C37.0272 38.7971 36.4476 40.0143 36.3077 41.3181ZM29.3366 35.1095C29.6985 35.1557 30.0661 35.1246 30.415 35.0183C30.764 34.9119 31.0864 34.7327 31.361 34.4925C31.6355 34.2522 31.8559 33.9564 32.0077 33.6247C32.1594 33.2929 32.239 32.9327 32.2412 32.5679C32.1903 31.8144 31.8679 31.1048 31.3338 30.5707C30.7997 30.0367 30.0902 29.7143 29.3366 29.6633C27.5212 29.6633 26.7951 30.7525 26.432 32.5679C26.4342 32.9327 26.5138 33.2929 26.6655 33.6247C26.8173 33.9564 27.0377 34.2522 27.3123 34.4925C27.5868 34.7327 27.9092 34.9119 28.2582 35.0183C28.6072 35.1246 28.9747 35.1557 29.3366 35.1095Z" fill="white" stroke="black" stroke-width="0.75" stroke-miterlimit="10"/>
<path d="M29.3366 35.1095C28.9747 35.1557 28.6072 35.1247 28.2582 35.0183C27.9092 34.9119 27.5868 34.7327 27.3123 34.4925C27.0377 34.2522 26.8173 33.9565 26.6655 33.6247C26.5138 33.2929 26.4342 32.9328 26.432 32.5679C26.7951 31.1156 27.5212 29.6633 29.3366 29.6633C30.0902 29.7143 30.7997 30.0367 31.3338 30.5708C31.8679 31.1048 32.1903 31.8144 32.2412 32.5679C32.239 32.9328 32.1594 33.2929 32.0077 33.6247C31.8559 33.9565 31.6355 34.2522 31.361 34.4925C31.0864 34.7327 30.764 34.9119 30.415 35.0183C30.0661 35.1247 29.6985 35.1557 29.3366 35.1095Z" fill="#93989B" stroke="black" stroke-width="0.75" stroke-miterlimit="10"/>
</svg>
