<svg width="47" height="59" viewBox="0 0 47 59" fill="none" xmlns="http://www.w3.org/2000/svg">
<g clip-path="url(#clip0_242_690)">
<path d="M28.9965 52.2438H4.5014C2.05189 52.2438 1.16394 51.3098 1.16394 48.819V4.88814C1.09086 4.38164 1.13577 3.86477 1.29506 3.37915C1.45436 2.89352 1.72359 2.45273 2.08106 2.09226C2.43854 1.7318 2.87427 1.46173 3.35316 1.30382C3.83206 1.14591 4.34073 1.10457 4.83821 1.18313H28.7209V3.9541C28.9965 19.8639 28.9965 36.0538 28.9965 52.2438Z" fill="#AFE0EC" stroke="black" stroke-width="0.75" stroke-miterlimit="10"/>
<path d="M34.8447 1.18309C36.5338 0.961125 38.2506 1.15652 39.8496 1.7527C41.4487 2.34888 42.8828 3.32828 44.0304 4.60789C45.0982 5.96653 45.7574 7.60987 45.9288 9.34034V44.5224C45.846 46.5598 45.0129 48.491 43.5949 49.9329C42.1769 51.3748 40.2777 52.2218 38.274 52.306H34.906V1.18309H34.8447Z" fill="#AFE0EC" stroke="black" stroke-width="0.75" stroke-miterlimit="10"/>
<path d="M34.8449 1.18311V52.2438H29.0273V1.18311H34.8449Z" fill="white" stroke="black" stroke-width="0.75" stroke-miterlimit="10"/>
<path d="M6.98195 52.2438H12.4934V55.0459C12.5214 55.4197 12.4691 55.7953 12.3401 56.1466C12.2111 56.4979 12.0085 56.8164 11.7463 57.08C11.4841 57.3436 11.1686 57.5461 10.8218 57.6734C10.4749 57.8006 10.105 57.8496 9.73766 57.8169C9.37032 57.8496 9.00038 57.8006 8.65353 57.6734C8.30667 57.5461 7.99119 57.3436 7.729 57.08C7.46681 56.8164 7.26418 56.4979 7.13518 56.1466C7.00618 55.7953 6.95389 55.4197 6.98195 55.0459C6.82893 54.1183 6.82893 53.1713 6.98195 52.2438Z" fill="#93989B" stroke="black" stroke-width="0.75" stroke-miterlimit="10"/>
</g>
<defs>
<clipPath id="clip0_242_690">
<rect width="47" height="59" fill="white"/>
</clipPath>
</defs>
</svg>
