<svg width="59" height="59" viewBox="0 0 59 59" fill="none" xmlns="http://www.w3.org/2000/svg">
<g clip-path="url(#clip0_242_605)">
<path d="M1.10739 21.7882C1.02965 19.4131 1.51644 17.0538 2.52702 14.9077C3.09488 13.1876 3.66273 13.4743 4.51451 14.621L17.2912 27.5219C18.7109 28.9553 19.5626 28.9553 20.9823 27.5219L27.7965 20.6414C28.0604 20.4736 28.2779 20.2409 28.4287 19.9652C28.5794 19.6894 28.6585 19.3796 28.6585 19.0646C28.6585 18.7497 28.5794 18.4399 28.4287 18.1641C28.2779 17.8884 28.0604 17.6557 27.7965 17.4879C23.5376 13.1876 19.2787 8.88728 15.0198 4.87367C13.3162 3.15356 13.3162 2.58018 15.8716 2.00681C18.6297 1.1248 21.5373 0.82186 24.4156 1.11664C27.294 1.41142 30.0821 2.29768 32.6087 3.72091C35.1352 5.14413 37.3466 7.07423 39.1069 9.39249C40.8672 11.7107 42.1392 14.3681 42.8446 17.2012C43.6476 20.2923 43.7447 23.5273 43.1286 26.6618C42.962 27.1702 42.9544 27.718 43.1068 28.2309C43.2592 28.7437 43.5641 29.1968 43.9803 29.5287C48.2392 33.829 52.2142 38.1293 56.757 42.1429C58.4606 43.5763 58.1767 44.4364 56.757 45.8698L45.6839 57.0505C45.5177 57.317 45.2872 57.5367 45.0142 57.6889C44.7411 57.8411 44.4342 57.9209 44.1223 57.9209C43.8104 57.9209 43.5035 57.8411 43.2305 57.6889C42.9574 57.5367 42.7269 57.317 42.5607 57.0505C38.8697 53.0369 34.6108 49.31 30.9197 45.2964C30.2159 44.4264 29.2819 43.7759 28.2265 43.4207C27.171 43.0654 26.0373 43.02 24.9572 43.2896C21.0513 43.8445 17.0699 43.2465 13.493 41.5678C9.91607 39.8892 6.89651 37.2015 4.79844 33.829C2.15269 30.4054 0.839727 26.1223 1.10739 21.7882Z" fill="#AFE0EC" stroke="black" stroke-width="0.75" stroke-miterlimit="10"/>
</g>
<defs>
<clipPath id="clip0_242_605">
<rect width="59" height="59" fill="white"/>
</clipPath>
</defs>
</svg>
