<svg width="59" height="59" viewBox="0 0 59 59" fill="none" xmlns="http://www.w3.org/2000/svg">
<g clip-path="url(#clip0_242_454)">
<path d="M1.10731 21.7882C1.02958 19.4131 1.51637 17.0538 2.52695 14.9077C3.0948 13.1876 3.66265 13.4743 4.51443 14.621L17.2911 27.5219C18.7108 28.9553 19.5626 28.9553 20.9822 27.5219L27.7964 20.6414C28.0604 20.4736 28.2779 20.2409 28.4286 19.9652C28.5793 19.6894 28.6584 19.3796 28.6584 19.0646C28.6584 18.7497 28.5793 18.4399 28.4286 18.1641C28.2779 17.8884 28.0604 17.6557 27.7964 17.4879C23.5375 13.1876 19.2786 8.88728 15.0197 4.87367C13.3162 3.15356 13.3162 2.58018 15.8715 2.00681C18.6296 1.1248 21.5372 0.82186 24.4156 1.11664C27.2939 1.41142 30.0821 2.29768 32.6086 3.72091C35.1351 5.14413 37.3465 7.07423 39.1068 9.39249C40.8672 11.7107 42.1391 14.3681 42.8446 17.2012C43.6475 20.2923 43.7446 23.5273 43.1285 26.6618C42.9619 27.1702 42.9543 27.718 43.1067 28.2309C43.2591 28.7437 43.5641 29.1968 43.9803 29.5287C48.2392 33.829 52.2141 38.1293 56.757 42.1429C58.4605 43.5763 58.1766 44.4364 56.757 45.8698L45.6838 57.0505C45.5176 57.317 45.2872 57.5367 45.0141 57.6889C44.741 57.8411 44.4342 57.9209 44.1222 57.9209C43.8103 57.9209 43.5035 57.8411 43.2304 57.6889C42.9573 57.5367 42.7269 57.317 42.5606 57.0505C38.8696 53.0369 34.6107 49.31 30.9196 45.2964C30.2158 44.4264 29.2819 43.7759 28.2264 43.4207C27.1709 43.0654 26.0372 43.02 24.9572 43.2896C21.0513 43.8445 17.0698 43.2465 13.4929 41.5678C9.91599 39.8892 6.89643 37.2015 4.79836 33.829C2.15262 30.4054 0.839651 26.1223 1.10731 21.7882Z" fill="white" stroke="black" stroke-width="0.75" stroke-miterlimit="10"/>
</g>
<defs>
<clipPath id="clip0_242_454">
<rect width="59" height="59" fill="white"/>
</clipPath>
</defs>
</svg>
