<svg width="71" height="71" viewBox="0 0 71 71" fill="none" xmlns="http://www.w3.org/2000/svg">
<circle cx="35.5" cy="35.5" r="35.125" fill="#93989B" stroke="black" stroke-width="0.75"/>
<g clip-path="url(#clip0_0_1)">
<path d="M45.2356 24.3977C46.9765 24.3977 48.6917 24.3977 50.0985 25.8422C50.6288 26.3781 51.0502 27.0294 51.3357 27.7541C51.6212 28.4788 51.7643 29.2607 51.7559 30.0494C51.7559 33.2189 51.7559 36.3603 51.7559 39.5508C51.7559 43.4145 49.7581 45.5952 46.2185 45.6092H45.2484C45.2484 44.0666 45.2484 42.5169 45.2484 40.9743C45.2484 39.1581 44.6574 38.4639 42.9936 38.4569C37.9786 38.4289 32.9615 38.4289 27.9422 38.4569C26.4711 38.4569 25.8352 39.2002 25.8159 40.841C25.7966 42.4818 25.8159 44.0175 25.7838 45.6092C24.0429 45.6092 22.3277 45.6092 20.9272 44.1577C20.3977 43.6219 19.9776 42.9703 19.6943 42.2454C19.4109 41.5205 19.2707 40.7385 19.2827 39.9505C19.2827 36.781 19.2827 33.6396 19.2827 30.4421C19.2827 26.5925 21.2934 24.4117 24.8394 24.3977H25.803H45.2356ZM27.4861 35.028C27.6982 35.0271 27.9076 34.9768 28.1004 34.8805C28.2932 34.7842 28.465 34.6441 28.6042 34.4695C28.7435 34.2949 28.847 34.09 28.9078 33.8683C28.9687 33.6466 28.9855 33.4132 28.9572 33.1838C28.9642 32.9518 28.9244 32.721 28.8407 32.5076C28.7569 32.2942 28.6313 32.1035 28.4725 31.949C28.3138 31.7945 28.1259 31.6799 27.9222 31.6134C27.7184 31.5469 27.5038 31.53 27.2934 31.564C27.0902 31.5491 26.8865 31.5823 26.6962 31.6613C26.5059 31.7403 26.3334 31.8632 26.1907 32.0217C26.0479 32.1802 25.9382 32.3704 25.8691 32.5795C25.8 32.7886 25.7731 33.0115 25.7902 33.2329C25.7784 33.4769 25.8146 33.7208 25.8964 33.9482C25.9782 34.1756 26.1036 34.3812 26.2643 34.5513C26.425 34.7214 26.6171 34.8519 26.8279 34.9341C27.0386 35.0164 27.2631 35.0484 27.4861 35.028Z" fill="white" stroke="black" stroke-width="0.75" stroke-miterlimit="10"/>
<path d="M25.7517 45.6584C25.7517 44.0667 25.7517 42.482 25.7838 40.8902C25.8159 39.2985 26.4262 38.5061 27.9102 38.5061C32.9294 38.5061 37.9466 38.5061 42.9616 38.5061C44.6254 38.5061 45.2035 39.2073 45.2164 41.0234C45.2164 42.5661 45.2164 44.1158 45.2164 45.6584C45.2164 47.2011 45.2164 48.8279 45.2164 50.4126C45.2164 51.9973 44.6189 52.7196 43.1928 52.7196C38.0536 52.7196 32.9273 52.7196 27.8138 52.7196C26.3684 52.7196 25.8031 52.0184 25.7838 50.4126C25.7646 48.8068 25.7646 47.2431 25.7517 45.6584Z" fill="#AFE0EC" stroke="black" stroke-width="0.75" stroke-miterlimit="10"/>
<path d="M45.2355 24.3977H25.7644C25.7644 22.7569 25.7644 21.1231 25.7644 19.4893C25.7644 18.136 26.4068 17.2875 27.6466 17.2805C32.8715 17.2431 38.0942 17.2431 43.3147 17.2805C44.5289 17.2805 45.1841 18.136 45.197 19.4893C45.2291 21.1301 45.2291 22.7639 45.2355 24.3977Z" fill="#AFE0EC" stroke="black" stroke-width="0.75" stroke-miterlimit="10"/>
<path d="M27.4861 35.0281C27.2631 35.0484 27.0386 35.0164 26.8279 34.9342C26.6171 34.852 26.4249 34.7214 26.2643 34.5514C26.1036 34.3813 25.9781 34.1756 25.8964 33.9482C25.8146 33.7208 25.7784 33.4769 25.7902 33.233C25.773 33.0115 25.8 32.7886 25.8691 32.5796C25.9382 32.3705 26.0479 32.1802 26.1907 32.0217C26.3334 31.8633 26.5059 31.7403 26.6962 31.6613C26.8865 31.5823 27.0902 31.5492 27.2934 31.5641C27.5037 31.5301 27.7184 31.5469 27.9222 31.6134C28.1259 31.68 28.3138 31.7945 28.4725 31.949C28.6312 32.1036 28.7569 32.2943 28.8407 32.5076C28.9244 32.721 28.9642 32.9519 28.9572 33.1839C28.9855 33.4133 28.9687 33.6466 28.9078 33.8683C28.8469 34.09 28.7434 34.295 28.6042 34.4696C28.4649 34.6441 28.2932 34.7842 28.1004 34.8805C27.9076 34.9769 27.6981 35.0272 27.4861 35.0281Z" fill="#AFE0EC" stroke="black" stroke-width="0.75" stroke-miterlimit="10"/>
</g>
<defs>
<clipPath id="clip0_0_1">
<rect width="33" height="36" fill="white" transform="translate(19 17)"/>
</clipPath>
</defs>
</svg>
