<svg width="71" height="71" viewBox="0 0 71 71" fill="none" xmlns="http://www.w3.org/2000/svg">
<g clip-path="url(#clip0_242_714)">
<path d="M7.82666 57.2333C-2.79026 44.701 -2.13404 24.559 8.68028 12.3195C18.9771 0.665289 35.7828 -2.90014 49.8675 3.00677C61.6048 7.9558 70.4078 20.8339 70.7813 33.5524C71.048 42.3862 68.8073 50.3153 63.2054 57.1801C63.0043 56.902 62.8428 56.5976 62.7252 56.2754C60.1643 47.4949 54.6336 41.3751 46.1329 37.9161C48.6938 34.1378 50.401 30.1998 49.3874 25.3572C47.7335 17.4281 38.8238 12.1066 31.3013 14.7142C25.5927 16.7363 19.4039 23.1222 21.6447 31.6367C22.2315 33.8717 23.8321 35.681 24.3656 37.9161C21.2712 39.619 18.2835 41.3751 15.7227 43.7698C11.7747 47.5481 9.6406 52.2842 7.82666 57.2333Z" fill="#93989B" stroke="black" stroke-width="0.75" stroke-miterlimit="10"/>
<path d="M7.82666 57.2332C9.64061 52.2842 11.7747 47.548 15.7227 43.8229C18.2835 41.375 21.2712 39.6189 24.3656 37.916C25.9661 38.9803 27.5133 40.2043 29.2206 41.0025C35.516 43.8761 41.1179 42.4925 46.0796 37.9692C54.5625 41.4282 60.0932 47.548 62.6719 56.3285C62.8109 56.6407 62.9714 56.943 63.152 57.2332C49.4941 75.3797 21.3406 75.2732 7.82666 57.2332Z" fill="#AFE0EC" stroke="black" stroke-width="0.75" stroke-miterlimit="10"/>
<path d="M46.0795 37.9693C41.1178 42.4926 35.5159 43.8762 29.2204 41.0026C27.5132 40.2044 25.966 38.9804 24.3655 37.9161C23.6292 37.3041 22.0927 34.2868 21.6445 31.6367C19.4038 23.1222 25.5925 16.7364 31.3011 14.7674C38.8237 12.1598 47.7334 17.4814 49.3873 25.4105C50.4009 30.1999 48.6937 34.1378 46.0795 37.9693Z" fill="white" stroke="black" stroke-width="0.75" stroke-miterlimit="10"/>
<path d="M35.3347 43.6367C43.7617 43.6367 50.5932 36.8227 50.5932 28.4171C50.5932 20.0116 43.7617 13.1975 35.3347 13.1975C26.9076 13.1975 20.0762 20.0116 20.0762 28.4171C20.0762 36.8227 26.9076 43.6367 35.3347 43.6367Z" fill="white" stroke="black" stroke-width="0.75" stroke-miterlimit="10"/>
</g>
<defs>
<clipPath id="clip0_242_714">
<rect width="71" height="71" fill="white"/>
</clipPath>
</defs>
</svg>
