<svg width="46" height="59" viewBox="0 0 46 59" fill="none" xmlns="http://www.w3.org/2000/svg">
<g clip-path="url(#clip0_242_459)">
<path d="M32.3933 7.017H38.3205C39.2081 6.98777 40.0922 7.14453 40.9181 7.47758C41.7439 7.81062 42.494 8.31288 43.122 8.9533C43.75 9.59372 44.2425 10.3587 44.5691 11.2009C44.8957 12.0431 45.0494 12.9447 45.0207 13.85V51.1684C45.0645 52.1003 44.9124 53.0309 44.5746 53.8978C44.2368 54.7648 43.7212 55.5481 43.0622 56.1952C42.4033 56.8423 41.6163 57.3382 40.7541 57.6497C39.8918 57.9612 38.9742 58.0812 38.0628 58.0014H7.93726C7.03137 58.0561 6.12421 57.9188 5.27292 57.5982C4.42162 57.2776 3.64467 56.7807 2.99099 56.1388C2.33732 55.4969 1.82111 54.7239 1.47488 53.8684C1.12865 53.013 0.959904 52.0937 0.979282 51.1684V13.85C0.972305 12.9462 1.14256 12.0502 1.48005 11.2145C1.81754 10.3788 2.31544 9.62039 2.94449 8.98378C3.57354 8.34717 4.32104 7.84523 5.14305 7.50748C5.96506 7.16972 6.84499 7.00296 7.7311 7.017H13.6583V8.59384C13.6583 12.5359 14.6891 13.5872 18.5546 13.5872H25.4611C32.9087 13.85 32.651 12.2731 32.3933 7.017ZM23.3737 35.6629H14.8695C12.5501 35.6629 10.7462 36.9769 10.7462 38.8166C10.7462 40.6562 12.2924 42.233 14.8695 42.233H31.6202C33.9395 42.233 35.7434 40.919 35.7434 39.1056C35.7434 37.2923 34.1972 35.6629 31.6202 35.6629H23.3737ZM26.2084 23.3373H20.0235C19.6048 23.271 19.1767 23.3059 18.7737 23.4391C18.3706 23.5724 18.0039 23.8004 17.703 24.1047C17.4021 24.4089 17.1755 24.781 17.0415 25.1909C16.9074 25.6008 16.8696 26.0371 16.9311 26.4647C16.8868 26.8675 16.9276 27.2753 17.0508 27.6607C17.174 28.046 17.3767 28.4 17.6453 28.6988C17.9139 28.9976 18.2421 29.2343 18.6079 29.3929C18.9737 29.5515 19.3685 29.6284 19.7658 29.6183C23.8891 29.6183 28.27 29.9074 32.3933 29.6183C32.8283 29.6855 33.2729 29.638 33.6848 29.4803C34.0967 29.3226 34.4621 29.06 34.7463 28.7175C35.0305 28.3749 35.2239 27.964 35.3083 27.5236C35.3926 27.0833 35.365 26.6282 35.228 26.2019C35.228 24.1257 34.1972 23.3373 32.3933 23.3373H26.2084Z" fill="#CCCCCC" stroke="black" stroke-width="0.75" stroke-miterlimit="10"/>
<path d="M32.3933 7.01695C32.3933 12.2731 32.651 13.8499 25.4353 13.5871H18.4773C14.6118 13.5871 13.581 12.5359 13.581 8.59379V7.01695C13.6162 6.13625 13.8314 5.27277 14.2127 4.48172C14.5939 3.69068 15.1329 2.9895 15.7951 2.42303C16.4573 1.85657 17.2281 1.43729 18.0583 1.19203C18.8885 0.946767 19.7597 0.880914 20.6163 0.998686H25.2549C29.5586 0.998686 31.6202 2.62808 32.3933 7.01695Z" fill="white" stroke="black" stroke-width="0.75" stroke-miterlimit="10"/>
<path d="M23.3737 35.6628H31.6202C32.1151 35.5971 32.6181 35.6353 33.098 35.7752C33.578 35.915 34.0248 36.1535 34.411 36.476C34.7972 36.7984 35.1147 37.1981 35.3438 37.6503C35.5729 38.1025 35.7089 38.5978 35.7434 39.1056C35.7434 40.919 33.9395 41.9965 31.6202 42.233H14.8695C12.2924 42.233 10.7462 40.6562 10.7462 38.8165C10.7462 36.9769 12.5501 35.9257 14.8695 35.6628H23.3737Z" fill="white" stroke="black" stroke-width="0.75" stroke-miterlimit="10"/>
<path d="M26.2084 23.3372H32.3933C32.785 23.3085 33.1783 23.3617 33.5492 23.4934C33.92 23.6252 34.2606 23.8327 34.5501 24.1033C34.8396 24.3739 35.0719 24.7019 35.2328 25.0673C35.3936 25.4326 35.4797 25.8276 35.4857 26.228C35.7434 28.3305 34.4549 29.3817 32.651 29.6445C28.5277 29.9073 24.1468 29.6445 20.0235 29.6445C19.6262 29.6546 19.2314 29.5777 18.8656 29.4191C18.4998 29.2605 18.1716 29.0238 17.903 28.725C17.6345 28.4262 17.4317 28.0722 17.3086 27.6868C17.1854 27.3015 17.1445 26.8937 17.1888 26.4909C17.1489 26.0666 17.2015 25.6386 17.3428 25.2375C17.4841 24.8364 17.7106 24.4721 18.0061 24.1707C18.3017 23.8693 18.6589 23.6383 19.0522 23.4942C19.4455 23.3501 19.8652 23.2965 20.2812 23.3372H26.2084Z" fill="white" stroke="black" stroke-width="0.75" stroke-miterlimit="10"/>
</g>
<defs>
<clipPath id="clip0_242_459">
<rect width="46" height="59" fill="white"/>
</clipPath>
</defs>
</svg>
