<svg width="71" height="71" viewBox="0 0 71 71" fill="none" xmlns="http://www.w3.org/2000/svg">
<circle cx="35.5" cy="35.5" r="35.125" fill="#93989B" stroke="black" stroke-width="0.75"/>
<g clip-path="url(#clip0_0_1)">
<path d="M36.774 40.1791C35.6084 40.2415 34.807 41.115 33.8079 41.5413C27.0015 44.4424 18.6236 39.6488 17.5204 32.3702C17.1156 29.4576 17.7614 26.4961 19.3421 24.0156C20.9228 21.5352 23.3354 19.6977 26.1481 18.8318C27.7773 18.4039 29.4778 18.3189 31.1416 18.5823C32.8054 18.8457 34.3963 19.4517 35.8133 20.362C37.2302 21.2722 38.4424 22.4668 39.3728 23.8698C40.3032 25.2729 40.9315 26.8539 41.218 28.5125C41.6188 31.3596 41.0232 34.2576 39.532 36.7166C39.3447 37.0493 39.0533 37.3301 39.1677 37.7564C38.1264 38.2811 37.2857 39.132 36.774 40.1791ZM20.9028 30.3009C20.8793 31.4329 21.0812 32.5583 21.4967 33.6117C21.9122 34.6651 22.533 35.6255 23.3231 36.4372C24.1133 37.2488 25.0569 37.8956 26.0993 38.3398C27.1417 38.784 28.262 39.0169 29.3952 39.025C34.7758 39.025 37.9397 34.9905 38.0437 30.3009C38.1478 25.7986 34.0889 21.9825 29.7178 21.9825C28.5917 21.9478 27.4698 22.1358 26.4166 22.5356C25.3634 22.9353 24.3996 23.539 23.5805 24.3119C22.7614 25.0848 22.1033 26.0118 21.6437 27.0396C21.1842 28.0673 20.9324 29.1757 20.9028 30.3009Z" fill="#AFE0EC"/>
<path d="M36.774 40.1791C35.6084 40.2415 34.807 41.115 33.8079 41.5413C27.0015 44.4424 18.6236 39.6488 17.5204 32.3702C17.1156 29.4576 17.7614 26.4961 19.3421 24.0156C20.9228 21.5352 23.3354 19.6977 26.1481 18.8318C27.7773 18.4039 29.4778 18.3189 31.1416 18.5823C32.8054 18.8457 34.3963 19.4517 35.8133 20.362C37.2302 21.2722 38.4424 22.4668 39.3728 23.8698C40.3032 25.2729 40.9315 26.8539 41.218 28.5125C41.6188 31.3596 41.0232 34.2576 39.532 36.7166C39.3447 37.0493 39.0533 37.3301 39.1677 37.7564C38.1264 38.2811 37.2857 39.132 36.774 40.1791ZM20.9028 30.3009C20.8793 31.4329 21.0812 32.5583 21.4967 33.6117C21.9122 34.6651 22.533 35.6255 23.3231 36.4372C24.1133 37.2488 25.0569 37.8956 26.0993 38.3398C27.1417 38.784 28.262 39.0169 29.3952 39.025C34.7758 39.025 37.9397 34.9905 38.0437 30.3009C38.1478 25.7986 34.0889 21.9825 29.7178 21.9825C28.5917 21.9478 27.4698 22.1358 26.4166 22.5356C25.3634 22.9353 24.3996 23.539 23.5805 24.3119C22.7614 25.0848 22.1033 26.0118 21.6437 27.0396C21.1842 28.0673 20.9324 29.1757 20.9028 30.3009Z" stroke="black" stroke-width="0.75" stroke-miterlimit="10"/>
<path d="M40.4477 39.0665C40.7411 39.1084 41.039 39.1084 41.3324 39.0665C42.0629 38.8821 42.8305 38.9062 43.548 39.136C44.2655 39.3658 44.9041 39.792 45.3912 40.3663C47.0356 41.978 48.68 43.6001 50.2931 45.2534C50.6888 45.6487 51.0026 46.118 51.2168 46.6345C51.4309 47.151 51.5411 47.7046 51.5411 48.2636C51.5411 48.8227 51.4309 49.3762 51.2168 49.8927C51.0026 50.4092 50.6888 50.8785 50.2931 51.2739C49.8974 51.6692 49.4277 51.9828 48.9108 52.1967C48.3938 52.4106 47.8397 52.5207 47.2802 52.5207C46.7206 52.5207 46.1665 52.4106 45.6496 52.1967C45.1326 51.9828 44.6629 51.6692 44.2672 51.2739C43.1016 50.1509 42.0192 48.9135 40.8016 47.8529C38.8346 46.1372 37.4296 44.2343 38.0644 41.4373C38.7848 40.576 39.5826 39.7824 40.4477 39.0665Z" fill="#AFE0EC"/>
<path d="M40.4477 39.0665C40.7411 39.1084 41.039 39.1084 41.3324 39.0665C42.0629 38.8821 42.8305 38.9062 43.548 39.136C44.2655 39.3658 44.9041 39.792 45.3912 40.3663C47.0356 41.978 48.68 43.6001 50.2931 45.2534C50.6888 45.6487 51.0026 46.118 51.2168 46.6345C51.4309 47.151 51.5411 47.7046 51.5411 48.2636C51.5411 48.8227 51.4309 49.3762 51.2168 49.8927C51.0026 50.4092 50.6888 50.8785 50.2931 51.2739C49.8974 51.6692 49.4277 51.9828 48.9108 52.1967C48.3938 52.4106 47.8397 52.5207 47.2802 52.5207C46.7206 52.5207 46.1665 52.4106 45.6496 52.1967C45.1326 51.9828 44.6629 51.6692 44.2672 51.2739C43.1016 50.1509 42.0192 48.9135 40.8016 47.8529C38.8346 46.1372 37.4296 44.2343 38.0644 41.4373C38.7848 40.576 39.5826 39.7824 40.4477 39.0665Z" stroke="black" stroke-width="0.75" stroke-miterlimit="10"/>
<path d="M40.4477 39.0665C39.5821 39.7858 38.7843 40.5828 38.0644 41.4477L36.7739 40.1791C37.2856 39.132 38.1263 38.281 39.1676 37.7563L40.4477 39.0665Z" fill="white"/>
<path d="M40.4477 39.0665C39.5821 39.7858 38.7843 40.5828 38.0644 41.4477L36.7739 40.1791C37.2856 39.132 38.1263 38.281 39.1676 37.7563L40.4477 39.0665Z" stroke="black" stroke-width="0.75" stroke-miterlimit="10"/>
<path d="M20.9027 30.3009C20.9324 29.1775 21.1835 28.0709 21.6417 27.0445C22.0999 26.0181 22.7563 25.0921 23.5731 24.3194C24.3899 23.5468 25.3513 22.9426 26.4021 22.5416C27.4529 22.1406 28.5726 21.9506 29.697 21.9824C34.0889 22.076 38.1478 25.8505 38.0229 30.3529C37.9188 35.0424 34.7549 39.0873 29.3743 39.0769C28.2384 39.0663 27.1159 38.8297 26.0725 38.381C25.029 37.9323 24.0855 37.2805 23.2969 36.4635C22.5083 35.6466 21.8904 34.6809 21.4794 33.6228C21.0683 32.5648 20.8723 31.4355 20.9027 30.3009Z" fill="white"/>
<path d="M20.9027 30.3009C20.9324 29.1774 21.1835 28.0709 21.6417 27.0445C22.0999 26.0181 22.7563 25.0921 23.5731 24.3194C24.3899 23.5468 25.3513 22.9426 26.4021 22.5416C27.4529 22.1406 28.5726 21.9506 29.697 21.9824C34.0889 22.076 38.1478 25.8505 38.0229 30.3529C37.9188 35.0424 34.7549 39.0873 29.3743 39.0769C28.2384 39.0663 27.1159 38.8297 26.0725 38.381C25.029 37.9323 24.0855 37.2805 23.2969 36.4635C22.5083 35.6466 21.8904 34.6809 21.4794 33.6228C21.0683 32.5648 20.8723 31.4355 20.9027 30.3009Z" stroke="black" stroke-width="0.75" stroke-miterlimit="10"/>
</g>
<defs>
<clipPath id="clip0_0_1">
<rect width="35" height="35" fill="white" transform="translate(17 18)"/>
</clipPath>
</defs>
</svg>
