<svg width="80" height="59" viewBox="0 0 80 59" fill="none" xmlns="http://www.w3.org/2000/svg">
<g clip-path="url(#clip0_242_435)">
<path d="M9.12476 46.6712C1.20396 46.0563 1.20396 46.0563 1.20396 38.37V33.1434C1.20396 25.1496 5.29109 20.8453 13.8772 19.9229C14.1624 20.2304 14.5109 20.5378 14.796 20.5378H34.4713C36.3406 20.5378 36.3406 19.0006 36.3406 17.7708V1.47583H43.3109V17.4633C43.3109 19.6155 43.9762 20.5378 46.4792 20.5378H62.9861C63.905 20.5378 64.8555 20.8453 65.4891 19.9229C74.3604 20.2304 78.8277 24.8422 78.8277 33.4508V40.5222C78.8277 45.134 77.5287 46.3638 72.7762 46.3638H71.1921V45.4414C71.1397 43.237 70.3786 41.1035 69.0152 39.3395C67.6518 37.5754 65.7543 36.269 63.5881 35.603C61.4478 34.8582 59.1265 34.7531 56.924 35.3011C54.7214 35.8492 52.7387 37.0252 51.2317 38.6775C49.3148 40.8503 48.1023 43.5244 47.7465 46.3638H32.5386C32.5297 43.9877 31.7197 41.6797 30.2322 39.7922C28.7448 37.9047 26.6617 36.5414 24.301 35.9104C16.3802 33.4508 10.0436 38.0626 9.12476 46.6712Z" fill="#CCCCCC" stroke="black" stroke-width="0.75" stroke-miterlimit="10"/>
<path d="M47.7782 46.6712C48.1375 43.8385 49.3373 41.1681 51.2317 38.9849C52.7437 37.33 54.732 36.1527 56.94 35.6047C59.1481 35.0567 61.4747 35.1632 63.6198 35.9104C65.8144 36.5298 67.7424 37.824 69.1137 39.5983C70.485 41.3726 71.2255 43.531 71.2238 45.7488V46.6712C71.1916 48.9547 70.448 51.1754 69.0908 53.0411C67.7336 54.9069 65.8264 56.3304 63.6198 57.1246C61.6509 57.8474 59.5147 58.029 57.4463 57.6492C55.378 57.2695 53.4577 56.3432 51.897 54.9724C49.4675 52.8278 47.9908 49.8516 47.7782 46.6712Z" fill="#93989B" stroke="black" stroke-width="0.75" stroke-miterlimit="10"/>
<path d="M9.12475 46.6712C10.0436 38.0626 16.3802 33.4508 24.301 35.9104C26.609 36.6293 28.6352 38.0161 30.1076 39.8846C31.5801 41.7531 32.4284 44.014 32.5386 46.3638C31.5881 47.5936 32.2218 49.4383 31.5881 50.9755C30.5163 53.2154 28.7476 55.0727 26.531 56.2861C24.3144 57.4995 21.7616 58.0078 19.2317 57.7395C16.6671 57.3646 14.3091 56.1573 12.5426 54.3147C10.7761 52.472 9.70528 50.1028 9.50495 47.5936C9.37734 47.4751 9.27737 47.3315 9.21179 47.1724C9.14621 47.0133 9.11653 46.8424 9.12475 46.6712Z" fill="#93989B" stroke="black" stroke-width="0.75" stroke-miterlimit="10"/>
<path d="M36.6891 1.16833V17.4633C36.6891 18.6931 36.6891 20.2303 34.7881 20.2303H15.1446C14.8277 20.2303 14.5109 19.9229 14.1941 19.6154C14.8277 14.0813 15.1446 8.85462 19.2634 4.5503C20.2826 3.42592 21.5492 2.53821 22.9696 1.95283C24.39 1.36744 25.9278 1.09933 27.4693 1.16833H36.6891Z" fill="white" stroke="black" stroke-width="0.75" stroke-miterlimit="10"/>
<path d="M65.8376 19.9229C65.1098 20.4451 64.1984 20.6662 63.303 20.5378H46.8277C44.2931 20.5378 43.6594 19.6155 43.6594 17.4633V1.47581C47.1565 1.37408 50.656 1.57989 54.1149 2.09072C55.5809 2.4611 56.94 3.15248 58.0878 4.1118C59.2357 5.07112 60.1418 6.27288 60.7366 7.62485C62.7753 11.5843 64.4812 15.697 65.8376 19.9229Z" fill="white" stroke="black" stroke-width="0.75" stroke-miterlimit="10"/>
</g>
<defs>
<clipPath id="clip0_242_435">
<rect width="80" height="59" fill="white"/>
</clipPath>
</defs>
</svg>
