<svg width="87" height="63" viewBox="0 0 87 63" fill="none" xmlns="http://www.w3.org/2000/svg">
<g clip-path="url(#clip0_242_416)">
<path d="M9.92319 49.8353C1.30933 49.1787 1.30933 49.1787 1.30933 40.9713V35.3903C1.30933 26.8546 5.75408 22.2585 15.0915 21.2736C15.4016 21.6019 15.7806 21.9302 16.0907 21.9302H37.4875C39.5204 21.9302 39.5204 20.2887 39.5204 18.9755V1.57581H47.1006V18.6472C47.1006 20.9453 47.8242 21.9302 50.5462 21.9302H68.4975C69.4967 21.9302 70.5303 22.2585 71.2194 21.2736C80.867 21.6019 85.7252 26.5263 85.7252 35.7186V43.2694C85.7252 48.1938 84.3125 49.507 79.1442 49.507H77.4214V48.5221C77.3644 46.1682 76.5367 43.8901 75.054 42.0065C73.5713 40.1228 71.5078 38.7279 69.1521 38.0167C66.8245 37.2214 64.3001 37.1092 61.9048 37.6944C59.5096 38.2795 57.3533 39.5353 55.7145 41.2996C53.6298 43.6197 52.3112 46.4751 51.9244 49.507H35.3858C35.376 46.9698 34.4952 44.5053 32.8776 42.4899C31.26 40.4744 28.9946 39.0187 26.4273 38.345C17.8135 35.7186 10.9224 40.643 9.92319 49.8353Z" fill="#AFE0EC" stroke="black" stroke-width="0.75" stroke-miterlimit="10"/>
<path d="M51.9587 49.8354C52.3495 46.8106 53.6543 43.9592 55.7144 41.628C57.3587 39.8609 59.5209 38.6037 61.9222 38.0186C64.3235 37.4334 66.8537 37.5471 69.1865 38.345C71.5731 39.0064 73.6697 40.3883 75.161 42.2829C76.6523 44.1775 77.4576 46.4823 77.4558 48.8505V49.8354C77.4208 52.2737 76.6121 54.6449 75.1362 56.6372C73.6602 58.6294 71.5861 60.1495 69.1865 60.9974C67.0453 61.7693 64.7222 61.9631 62.4728 61.5577C60.2235 61.1522 58.1352 60.1631 56.4379 58.6994C53.7958 56.4093 52.1899 53.2314 51.9587 49.8354Z" fill="#93989B" stroke="black" stroke-width="0.75" stroke-miterlimit="10"/>
<path d="M9.92309 49.8353C10.9223 40.643 17.8134 35.7186 26.4272 38.3449C28.9372 39.1126 31.1407 40.5934 32.742 42.5886C34.3433 44.5838 35.2658 46.9979 35.3857 49.507C34.352 50.8202 35.0411 52.79 34.352 54.4314C33.1864 56.8232 31.2629 58.8064 28.8524 60.1021C26.4419 61.3977 23.6656 61.9405 20.9144 61.654C18.1254 61.2537 15.5611 59.9646 13.64 57.997C11.7189 56.0294 10.5544 53.4995 10.3366 50.8202C10.1978 50.6937 10.0891 50.5404 10.0177 50.3705C9.94642 50.2006 9.91414 50.0181 9.92309 49.8353Z" fill="#93989B" stroke="black" stroke-width="0.75" stroke-miterlimit="10"/>
<path d="M39.8994 1.24754V18.6472C39.8994 19.9604 39.8994 21.6019 37.8321 21.6019H16.4697C16.1251 21.6019 15.7806 21.2736 15.436 20.9453C16.1251 15.036 16.4697 9.45494 20.9489 4.85879C22.0573 3.65818 23.4348 2.7103 24.9794 2.08522C26.5241 1.46015 28.1965 1.17386 29.8729 1.24754H39.8994Z" fill="white" stroke="black" stroke-width="0.75" stroke-miterlimit="10"/>
<path d="M71.5986 21.2736C70.8071 21.8312 69.8159 22.0673 68.8421 21.9301H50.9253C48.1688 21.9301 47.4797 20.9453 47.4797 18.6472V1.57579C51.2829 1.46716 55.0885 1.68692 58.85 2.23239C60.4443 2.62788 61.9223 3.36613 63.1706 4.39049C64.4189 5.41485 65.4043 6.69808 66.0512 8.14171C68.2683 12.3696 70.1235 16.7611 71.5986 21.2736Z" fill="white" stroke="black" stroke-width="0.75" stroke-miterlimit="10"/>
</g>
<defs>
<clipPath id="clip0_242_416">
<rect width="87" height="63" fill="white"/>
</clipPath>
</defs>
</svg>
